# xmcd
#
# Track frame offsets:
#	150
#	16002
#	32287
#	46944
#	63455
#	87031
#	102364
#	120457
#	135090
#	148532
#	162825
#	172553
#	189139
#	209646
#	223370
#	239092
#	254995
#	275198
#
# Disc length: 3900 seconds
#
# Revision: 0
# Processed by: cddbd v1.5.1PL0 Copyright (c) Steve Scherf et al.
# Submitted via: dBpowerAMP V4.0
#
DISCID=fb0f3a12
DTITLE=Show Chow - Best of
DYEAR=2005
DGENRE=Humour
TTITLE0=Ud øve sonne
TTITLE1=Ennå enn sommar
TTITLE2=Eg e liga gla
TTITLE3=Eg vett enn liden holme
TTITLE4=Livet på Tovet
TTITLE5=Ska me finna smilet fram
TTITLE6=Mi greska øy
TTITLE7=Dagen e her
TTITLE8=Vin og brød
TTITLE9=La onga væra onga
TTITLE10=Det blei folk av okke au
TTITLE11=Sangen te deg
TTITLE12=Kontrari
TTITLE13=Alt fø damene
TTITLE14=Venner
TTITLE15=Hopp, Jan Ivar, hopp
TTITLE16=Sangen gjønå Egersund
TTITLE17=Julebyen
EXTD=
EXTT0=
EXTT1=
EXTT2=
EXTT3=
EXTT4=
EXTT5=
EXTT6=
EXTT7=
EXTT8=
EXTT9=
EXTT10=
EXTT11=
EXTT12=
EXTT13=
EXTT14=
EXTT15=
EXTT16=
EXTT17=
PLAYORDER=
